{"title":"Happy Bhaag Jayegi 2016 Movies DVDScr XviD New +Sample ~ ☻rDX☻","uid":15602771,"size":739331988,"categoryP":"video","categoryS":"movies","magnet":"?xt=urn:btih:4e127569fa5bd9a61c4669b87ffe3667e9a01ad2&amp;dn=Happy+Bhaag+Jayegi+2016+Movies+DVDScr+XviD+New+%2BSample+%7E+%E2%98%BBrDX%E2%98%BB&amp;tr=udp%3A%2F%2Ftracker.leechers-paradise.org%3A6969&amp;tr=udp%3A%2F%2Fzer0day.ch%3A1337&amp;tr=udp%3A%2F%2Fopen.demonii.com%3A1337&amp;tr=udp%3A%2F%2Ftracker.coppersurfer.tk%3A6969&amp;tr=udp%3A%2F%2Fexodus.desync.com%3A6969","seeders":8,"leechers":2,"uploader":"basicssom","files":2,"time":1471679224,"description":"----------------------------------------------------------------\r\nHappy Bhaag Jayegi 2016 Hindi Movies DVDScr XviD AAC New Source with Sample ☻rDX☻\r\n\r\nSCREEN SHOTS &amp; POSTER:\r\n  \nhttp://postimage.co.nr/2016/8/account/index.htm  \nhttp://postimage.co.nr/2016/8/account/1.html  \nhttp://postimage.co.nr/2016/8/account/2.html  \nhttp://postimage.co.nr/2016/8/account/3.html  \nhttp://postimage.co.nr/2016/8/account/4.html  \nhttp://postimage.co.nr/2016/8/account/5.html  \nhttp://postimage.co.nr/2016/8/account/6.html  \nhttp://postimage.co.nr/2016/8/account/7.html  \nhttp://postimage.co.nr/2016/8/account/8.html  \nhttp://postimage.co.nr/2016/8/account/9.html  \nhttp://postimage.co.nr/2016/8/account/10.html\r\n\r\nFormat                                   : Matroska\r\nFormat version                           : Version 4 / Version 2\r\nFile size                                : 689 MiB\r\nDuration                                 : 2 h 5 min\r\nOverall bit rate                         : 768 kb/s\r\nMovie name                               : Happy Bhaag Jayegi 2016 Hindi Movies DVDScr XviD AAC New Source ☻rDX☻\r\n\r\nVideo\r\nID                                       : 1\r\nFormat                                   : MPEG-4 Visual\r\nFormat profile                           : Advanced   \r\nFormat settings, BVOP                    : 2\r\nFormat settings, QPel                    : No\r\nFormat settings, GMC                     : No warppoints\r\nFormat settings, Matrix                  : Default (H.263)\r\nCodec ID                                 : V_MS/VFW/FOURCC / XVID\r\nCodec ID/Hint                            : XviD\r\nDuration                                 : 2 h 5 min\r\nBit rate                                 : 672 kb/s\r\nWidth                                    : 640 pixels\r\nHeight                                   : 272 pixels\r\nDisplay aspect ratio                     : 2.35:1\r\nFrame rate mode                          : Constant\r\nFrame rate                               : 23.976 (24000/1001) FPS\r\nColor space                              : YUV\r\nChroma subsampling                       : 4:2:0\r\nBit depth                                : 8 bits\r\nScan type                                : Progressive\r\nCompression mode                         : Lossy\r\nBits/(Pixel*Frame)                       : 0.161\r\nStream size                              : 604 MiB (88%)\r\nTitle                                    : ☻rDX☻\r\nWriting library                          : XviD 67\r\nDefault                                  : Yes\r\nForced                                   : No\r\n\r\nAudio\r\nID                                       : 2\r\nFormat                                   : MPEG Audio\r\nFormat version                           : Version 1\r\nFormat profile                           : Layer 3\r\nMode                                     : Joint stereo\r\nMode extension                           : MS Stereo\r\nCodec ID                                 : A_MPEG/L3\r\nCodec ID/Hint                            : MP3\r\nDuration                                 : 2 h 5 min\r\nBit rate mode                            : Constant\r\nBit rate                                 : 80.0 kb/s\r\nChannel(s)                               : 2 channels\r\nSampling rate                            : 32.0 kHz\r\nCompression mode                         : Lossy\r\nStream size                              : 71.8 MiB (10%)\r\nTitle                                    : ☻rDX☻\r\nWriting library                          : LAME3.99r\r\nEncoding settings                        : -m j -V 4 -q 2 -lowpass 13.5 -b 80\r\nDefault                                  : Yes\r\nForced                                   : No\r\n\r\nIMDB \nhttp://www.imdb.com/title/tt5472758/","torrent":{"xt":"urn:btih:4e127569fa5bd9a61c4669b87ffe3667e9a01ad2","amp;dn":"Happy+Bhaag+Jayegi+2016+Movies+DVDScr+XviD+New+%2BSample+%7E+%E2%98%BBrDX%E2%98%BB","amp;tr":["udp%3A%2F%2Ftracker.leechers-paradise.org%3A6969","udp%3A%2F%2Fzer0day.ch%3A1337","udp%3A%2F%2Fopen.demonii.com%3A1337","udp%3A%2F%2Ftracker.coppersurfer.tk%3A6969","udp%3A%2F%2Fexodus.desync.com%3A6969"],"infoHash":"4e127569fa5bd9a61c4669b87ffe3667e9a01ad2","infoHashBuffer":{"type":"Buffer","data":[78,18,117,105,250,91,217,166,28,70,105,184,127,254,54,103,233,160,26,210]},"announce":[],"urlList":[]}}